<svg id="ee56696c-2875-4f53-b39e-af15b065d558" data-name="Layer 1" xmlns="http://www.w3.org/2000/svg" viewBox="0 0 1080 1080"><path d="M347.11,348.2v52.85a27.59,27.59,0,0,1-8.55,19.19,28,28,0,1,1-19.48-48.05,27.44,27.44,0,0,1,13.06,3.21V348.2Zm-14.73,51.9a12.71,12.71,0,0,0-3.86-9.32,13.34,13.34,0,0,0-18.77,0,12.71,12.71,0,0,0-3.86,9.32,13.25,13.25,0,1,0,26.49,0Z"/><path d="M387.14,386.68h-8.67c-2.78,0-4.36,1.51-4.76,4.52v36.34H359v-35q0-9.25,6.29-15a16.62,16.62,0,0,1,11.4-4.75h10.46Z"/><path d="M450.2,405.81l-40,.11a12.18,12.18,0,0,0,4.93,6.42,13.9,13.9,0,0,0,8.13,2.61,14.89,14.89,0,0,0,10.34-4.27q5.58,5.7,9.38,9.38a27.93,27.93,0,1,1-19.6-47.87q16.15,0,23.28,13.54a33.53,33.53,0,0,1,3.68,15.8C450.32,402.8,450.28,404.22,450.2,405.81Zm-13.89-11.76Q432.38,386,423.24,386a13.6,13.6,0,0,0-13.06,8.08Z"/><path d="M514.7,396.3v31.24H500.21v-9A44.41,44.41,0,0,1,491.3,424q-6.76,3.45-9.27,3.44-5.7,0-6.17-.12a17.94,17.94,0,0,1-8.67-4,17.27,17.27,0,0,1-5.7-8.49q-1.67-5.22-1.67-15.56A26,26,0,0,1,467.9,380a27,27,0,0,1,19.6-7.9,27.26,27.26,0,0,1,27.2,24.23Zm-14.26,3a7.67,7.67,0,0,0-.23-2.25,12.32,12.32,0,0,0-4.46-7.49,13,13,0,0,0-21.32,10.1q0,9.86.72,11.52A4,4,0,0,0,479.3,414q4.4-.12,13.78-7.24A38.52,38.52,0,0,0,500.44,399.27Z"/><path d="M598.55,393.45v34.09H583.7l.12-33.85a6.9,6.9,0,0,0-6.89-6.89,6.77,6.77,0,0,0-5,2,6.63,6.63,0,0,0-2,4.87v33.85H555.08q-.24-34.56,0-34.68-.95-5.82-6.77-5.82a6.43,6.43,0,0,0-4.81,2,7.33,7.33,0,0,0-2.08,5q.12-.72.12,33.49h-15V393.81a20.61,20.61,0,0,1,6.42-15,20.92,20.92,0,0,1,15.2-6.17,21.14,21.14,0,0,1,14,5.1,21.15,21.15,0,0,1,14.49-5.46,21.41,21.41,0,0,1,15.38,6.24A20,20,0,0,1,598.55,393.45Z"/><path d="M626.7,427.54H611.62V348.08H626.7Z"/><path d="M655.21,358.41A7.72,7.72,0,1,1,653,353,7.48,7.48,0,0,1,655.21,358.41Zm-.12,69.13H640V372.67h15.09Z"/><path d="M711,427.54H696.3v-6.77a13.42,13.42,0,0,0-3.62-9.32,11,11,0,0,0-8.73-3.86h-1.9v20h-15V372.79h15V393l.12-.12H684a10.8,10.8,0,0,0,8.13-3.33,13.63,13.63,0,0,0,4.1-8.31v-8.43h14.73v7.12a26.86,26.86,0,0,1-9,20.31,26.84,26.84,0,0,1,9,20.55q0,1.31.12,3.45Z"/><path d="M775.29,405.81l-40,.11a12.18,12.18,0,0,0,4.93,6.42,13.9,13.9,0,0,0,8.13,2.61,14.89,14.89,0,0,0,10.34-4.27q5.58,5.7,9.38,9.38a27.92,27.92,0,1,1-19.6-47.87q16.15,0,23.28,13.54a33.41,33.41,0,0,1,3.68,15.8C775.4,402.8,775.36,404.22,775.29,405.81Zm-13.9-11.76Q757.47,386,748.32,386a13.61,13.61,0,0,0-13.06,8.08Z"/><path d="M572.82,433v41.37a21.58,21.58,0,0,1-6.7,15,21.88,21.88,0,1,1-15.24-37.61,21.56,21.56,0,0,1,10.22,2.51V433Zm-11.53,40.63a10,10,0,0,0-3-7.3,10.08,10.08,0,0,0-7.39-3,10.37,10.37,0,0,0,0,20.73,10.31,10.31,0,0,0,10.41-10.41Z"/><path d="M594.2,440.94a6,6,0,1,1-1.77-4.27A5.82,5.82,0,0,1,594.2,440.94Zm-.09,54.11H582.3V452.1h11.81Z"/><path d="M646.54,513.65h-11.8V493a22,22,0,1,1-10.14-41.56A21,21,0,0,1,640,457.86l-8.36,7.91a10.64,10.64,0,0,0-14.51.32,10.41,10.41,0,0,0,0,14.74,10.17,10.17,0,0,0,7.44,3.07A10.46,10.46,0,0,0,635,473.48h11.53Z"/><path d="M667.93,440.94a6,6,0,1,1-1.77-4.27A5.82,5.82,0,0,1,667.93,440.94Zm-.1,54.11H656V452.1h11.8Z"/><path d="M702.51,463.72H694.7v31.43H682.89l.1-31.43h-7.63V452l7.63.09V436.57H694.7V452.1l7.81-.09Z"/><path d="M752,470.6v24.45H740.63V488a35.17,35.17,0,0,1-7,4.27q-5.31,2.7-7.26,2.7-4.46,0-4.83-.09a14.06,14.06,0,0,1-6.79-3.12,13.63,13.63,0,0,1-4.46-6.65Q709,481,709,472.93a20.3,20.3,0,0,1,6.32-15.11,21.13,21.13,0,0,1,15.34-6.18,21.31,21.31,0,0,1,21.29,19Zm-11.16,2.33a6.14,6.14,0,0,0-.18-1.77,9.65,9.65,0,0,0-3.49-5.86,10.19,10.19,0,0,0-16.69,7.9q0,7.73.56,9a3.13,3.13,0,0,0,3.25,2.23q3.45-.09,10.79-5.67A30.28,30.28,0,0,0,740.81,472.93Z"/><path d="M774,495.05H762.2V432.86H774Z"/><rect x="326.61" y="441.4" width="50.06" height="49.71"/><rect x="389.14" y="441.4" width="50.06" height="49.71"/><path d="M494.58,447.4v37.71H456.53V447.4h38.05m6-6H450.53v49.71h50.05V441.4Z"/><rect x="292.02" y="433.26" width="18.95" height="80.38"/><rect x="307.03" y="502.1" width="468.38" height="11.55"/></svg>