<svg id="ad480b70-f1db-4c7a-a989-f753f2063c02" data-name="Layer 1" xmlns="http://www.w3.org/2000/svg" viewBox="0 0 1080 1080"><path d="M153.34,400V512.65a58.69,58.69,0,0,1-18.23,40.89q-17.22,16.83-41.52,16.83-24.56,0-42-17.47a57.59,57.59,0,0,1-17.47-42.28q0-24.56,17.47-42t42-17.47A58.59,58.59,0,0,1,121.44,458V400ZM122,510.62a27.09,27.09,0,0,0-8.23-19.87,27.42,27.42,0,0,0-20.13-8.23,28.23,28.23,0,0,0,0,56.46A28.1,28.1,0,0,0,122,510.62Z"/><path d="M238.66,482H220.18q-8.87,0-10.13,9.62v77.48H178.66V494.42q0-19.76,13.42-31.9,11.13-10.12,24.3-10.13h22.28Z"/><path d="M373.1,522.78l-85.33.25q2.53,8.1,10.51,13.67a29.7,29.7,0,0,0,17.34,5.57q12.17,0,22-9.11,11.89,12.15,20,20-17.46,17.22-41.77,17.21-24.57,0-42-17.47t-17.47-42q0-24.81,17.47-42.28t42-17.47q34.42,0,49.62,28.86,7.85,14.94,7.85,33.67C373.35,516.36,373.26,519.4,373.1,522.78Zm-29.63-25.07q-8.36-17.22-27.85-17.22-19.23,0-27.85,17.22Z"/><path d="M510.57,502.52v66.59H479.68V549.86q-5.82,5.07-19,11.65-14.43,7.35-19.75,7.34-12.15,0-13.16-.25a38.37,38.37,0,0,1-18.48-8.48A37.13,37.13,0,0,1,397.15,542q-3.56-11.14-3.55-33.17,0-24.3,17.22-41.14t41.77-16.84a58.1,58.1,0,0,1,58,51.65Zm-30.38,6.33c.16-.34,0-1.94-.51-4.81a26.23,26.23,0,0,0-9.49-16,27.75,27.75,0,0,0-45.45,21.52q0,21,1.52,24.56,2.53,6.33,8.86,6.08,9.38-.25,29.37-15.45A82.33,82.33,0,0,0,480.19,508.85Z"/><path d="M689.31,496.45v72.66H657.66l.26-72.16a14.7,14.7,0,0,0-14.69-14.68,14.43,14.43,0,0,0-10.63,4.3A14.15,14.15,0,0,0,628.29,497v72.16H596.65q-.51-73.68,0-73.93-2-12.4-14.43-12.41A13.74,13.74,0,0,0,572,487.08a15.64,15.64,0,0,0-4.43,10.63q.26-1.51.25,71.4h-31.9V497.2a43.94,43.94,0,0,1,13.68-31.9A46.47,46.47,0,0,1,611.84,463a45.12,45.12,0,0,1,30.88-11.64,45.66,45.66,0,0,1,32.79,13.29Q689.31,478,689.31,496.45Z"/><path d="M749.31,569.11H717.16V399.73h32.15Z"/><path d="M810.07,421.76a16.42,16.42,0,1,1-4.81-11.65A15.84,15.84,0,0,1,810.07,421.76Zm-.25,147.35H777.67v-117h32.15Z"/><path d="M929.07,569.11h-31.4V554.68A28.58,28.58,0,0,0,890,534.8q-7.73-8.47-18.61-8.23h-4.05v42.54h-31.9V452.39h31.9v43l.25-.25h3.8a23.07,23.07,0,0,0,17.34-7.09,29.14,29.14,0,0,0,8.74-17.72v-18h31.39v15.19q-.25,25.83-19.24,43.3,19.24,17.72,19.24,43.8c0,1.86.08,4.3.26,7.34Z"/><path d="M1066,522.78l-85.32.25q2.53,8.1,10.51,13.67a29.7,29.7,0,0,0,17.34,5.57q12.15,0,22-9.11,11.9,12.15,20,20-17.47,17.22-41.78,17.21-24.55,0-42-17.47t-17.47-42q0-24.81,17.47-42.28t42-17.47q34.44,0,49.63,28.86,7.85,14.94,7.85,33.67Q1066.29,517.71,1066,522.78Zm-29.62-25.07q-8.36-17.22-27.85-17.22-19.24,0-27.85,17.22Z"/><path d="M634.46,580.63v88.19a46,46,0,0,1-14.27,32,46.63,46.63,0,1,1-32.5-80.17,46,46,0,0,1,21.8,5.35V580.63Zm-24.58,86.6a21.2,21.2,0,0,0-6.44-15.55,21.43,21.43,0,0,0-15.75-6.44,22,22,0,0,0-22,22A21.43,21.43,0,0,0,572.13,683a21.21,21.21,0,0,0,15.56,6.44,22,22,0,0,0,22.19-22.2Z"/><path d="M680,597.68a12.87,12.87,0,1,1-3.77-9.12A12.42,12.42,0,0,1,680,597.68ZM679.84,713H654.67V621.46h25.17Z"/><path d="M791.61,752.65H766.44v-44a46.92,46.92,0,1,1-21.6-88.58,44.89,44.89,0,0,1,32.9,13.67L759.9,650.59a22.68,22.68,0,0,0-30.92.69,22.13,22.13,0,0,0,0,31.41,21.6,21.6,0,0,0,15.86,6.54A22.33,22.33,0,0,0,767,667h24.58Z"/><path d="M837.19,597.68a12.87,12.87,0,1,1-3.77-9.12A12.42,12.42,0,0,1,837.19,597.68ZM837,713H811.82V621.46H837Z"/><path d="M910.91,646.23H894.26v67H869.09l.2-67H853v-25l16.25.2v-33.1h25v33.1l16.65-.2Z"/><path d="M1016.34,660.89V713H992.16V698q-4.56,4-14.87,9.12-11.29,5.74-15.45,5.75-9.51,0-10.31-.2A30.15,30.15,0,0,1,937.07,706a29.12,29.12,0,0,1-9.52-14.17q-2.77-8.71-2.77-26a43.36,43.36,0,0,1,13.47-32.21A45.07,45.07,0,0,1,971,620.47a45.49,45.49,0,0,1,45.39,40.42Zm-23.78,5a13.13,13.13,0,0,0-.4-3.77,20.55,20.55,0,0,0-7.43-12.48,21.72,21.72,0,0,0-35.58,16.84q0,16.45,1.19,19.22,2,5,6.94,4.76,7.34-.2,23-12.09A64.9,64.9,0,0,0,992.56,665.85Z"/><path d="M1063.3,713h-25.17V580.43h25.17Z"/><rect x="109.65" y="598.65" width="106.7" height="105.96"/><rect x="242.92" y="598.65" width="106.7" height="105.96"/><path d="M467.7,611.44v80.38H386.57V611.44H467.7m12.79-12.79H373.78v106H480.49v-106Z"/><rect x="35.91" y="581.3" width="40.39" height="171.34"/><rect x="67.91" y="728.03" width="998.39" height="24.61"/></svg>