<svg id="a502ffa8-333d-40d2-a949-9bbed442fed0" data-name="Layer 1" xmlns="http://www.w3.org/2000/svg"
    viewBox="0 0 139.74 139.74">
    <path
        d="M104.49,38.88V68.45a15.4,15.4,0,0,1-4.78,10.72A15.63,15.63,0,0,1,73.2,67.91,15.67,15.67,0,0,1,88.81,52.3a15.33,15.33,0,0,1,7.31,1.8V38.88Zm-8.24,29a7.11,7.11,0,0,0-2.16-5.21,7.18,7.18,0,0,0-5.28-2.16,7.37,7.37,0,0,0-7.37,7.37,7.41,7.41,0,1,0,14.81,0Z"
        transform="translate(-45.84 -15.99)" />
    <path
        d="M153.48,89.31v29.56a15.43,15.43,0,0,1-4.78,10.73,15.63,15.63,0,0,1-21.92-22.29,15,15,0,0,1,11-4.58,15.44,15.44,0,0,1,7.31,1.79V89.31Zm-8.24,29a7.11,7.11,0,0,0-2.16-5.22A7.22,7.22,0,0,0,137.8,111a7.42,7.42,0,1,0,7.44,7.38Z"
        transform="translate(-45.84 -15.99)" />
    <path d="M115.9,38.62v5.49a42,42,0,0,1,42,42.05h5.49A47.53,47.53,0,0,0,115.9,38.62Z"
        transform="translate(-45.84 -15.99)" />
    <path d="M73.85,86.16H68.37a47.52,47.52,0,0,0,47.35,47.52V128.2A42,42,0,0,1,73.85,86.16Z"
        transform="translate(-45.84 -15.99)" />
    <path d="M84.83,86.16H79.34a36.55,36.55,0,0,0,36.38,36.55v-5.49A31.06,31.06,0,0,1,84.83,86.16Z"
        transform="translate(-45.84 -15.99)" />
    <path d="M115.9,49.6v5.48A31.08,31.08,0,0,1,147,86.16h5.49A36.56,36.56,0,0,0,115.9,49.6Z"
        transform="translate(-45.84 -15.99)" />
    <path d="M115.9,60.57v5.49A20.09,20.09,0,0,1,136,86.16h5.49A25.59,25.59,0,0,0,115.9,60.57Z"
        transform="translate(-45.84 -15.99)" />
    <path d="M95.8,86.16H90.31a25.58,25.58,0,0,0,25.41,25.57v-5.48A20.1,20.1,0,0,1,95.8,86.16Z"
        transform="translate(-45.84 -15.99)" />
    <path d="M106.77,86.16h-5.48a14.61,14.61,0,0,0,14.43,14.6V95.27A9.12,9.12,0,0,1,106.77,86.16Z"
        transform="translate(-45.84 -15.99)" />
    <path d="M115.9,71.55V77A9.12,9.12,0,0,1,125,86.16h5.49A14.61,14.61,0,0,0,115.9,71.55Z"
        transform="translate(-45.84 -15.99)" />
    <path
        d="M115.71,155.73a69.87,69.87,0,1,1,69.87-69.87A69.94,69.94,0,0,1,115.71,155.73Zm0-133.17A63.3,63.3,0,1,0,179,85.86,63.36,63.36,0,0,0,115.71,22.56Z"
        transform="translate(-45.84 -15.99)" />
</svg>