<svg id="a75f3aee-5c27-4096-aeb4-6ea5758e234b" data-name="Layer 1" xmlns="http://www.w3.org/2000/svg"
    viewBox="0 0 1080 1350">
    <defs>
        <style>
            .beae9503-f23a-4419-9478-150aec19f36d {
                fill: #222;
            }
        </style>
    </defs>
    <path class="beae9503-f23a-4419-9478-150aec19f36d"
        d="M553.41,616.05A88.93,88.93,0,1,1,464.49,705a88.93,88.93,0,0,1,88.92-88.93m0-50.75a139.47,139.47,0,1,0,54.38,11,138.79,138.79,0,0,0-54.38-11Z" />
    <path class="beae9503-f23a-4419-9478-150aec19f36d"
        d="M696.34,489a75.4,75.4,0,0,1,75.19,75.19V845.77A75.4,75.4,0,0,1,696.34,921H410.48a75.4,75.4,0,0,1-75.19-75.19V564.18A75.4,75.4,0,0,1,410.48,489H696.34m0-54.35H410.48A129.68,129.68,0,0,0,280.94,564.18V845.77A129.68,129.68,0,0,0,410.48,975.31H696.34A129.68,129.68,0,0,0,825.88,845.77V564.18A129.68,129.68,0,0,0,696.34,434.64Z" />
    <circle class="beae9503-f23a-4419-9478-150aec19f36d" cx="694.82" cy="561.76" r="33.2" />
</svg>