<svg id="b2900571-9541-41fd-99cd-140fe9571142" data-name="Layer 1" xmlns="http://www.w3.org/2000/svg"
    viewBox="0 0 1080 1350">
    <defs>
        <style>
            .bc3aad72-bbc7-46f8-aff7-49de07ffcac1 {
                fill: #222;
            }
        </style>
    </defs>
    <path class="bc3aad72-bbc7-46f8-aff7-49de07ffcac1"
        d="M345.89,822.73c40.11-2.46,77-10.85,111.79-36.7-22.24-4.36-40.92-11.37-55-26.82a49.85,49.85,0,0,1-5.49-6.53c-4.21-6.62-12.35-13.54-9.42-20.77,2.48-6.11,12.46-.4,18.87-2.36,1.5-.46,3-.88,7.09-2.06-16.25-9.14-31.28-16.74-41.24-30.71-10.11-14.19-16.11-29.55-15.74-47.62,10.49-.41,18.46,8,30.42,5.17-21.52-20.88-33.31-44.83-29.39-74.5.3-2.25.16-4.61.79-6.76,2.2-7.44,2-18.06,9.29-20.61,6.22-2.17,10,7.77,14.73,12.39,38.3,37.54,83.66,60.42,137.26,67,9.43,1.15,14.43,1.19,13.69-11.29-2.11-35.15,13-62.32,44.74-77.75,30.8-14.95,61.25-11.55,88.2,10.27,6.86,5.56,12.74,6.13,20.18,3.28,11.66-4.47,23.39-8.76,37.16-13.89-4.49,17.34-15.8,28.5-28.82,40.53,14.72-.28,26-6.48,39.08-9-5.36,10.5-11.87,18.78-20.05,24.72-14.16,10.26-18.2,23-19.24,40.28C685.08,801.86,518.07,901.2,368.72,833.7,361,830.22,353.5,826.39,345.89,822.73Z" />
</svg>